<?xml version="1.0" standalone="no"?>
<!DOCTYPE svg PUBLIC "-//W3C//DTD SVG 20010904//EN"
 "http://www.w3.org/TR/2001/REC-SVG-20010904/DTD/svg10.dtd">
<svg version="1.0" xmlns="http://www.w3.org/2000/svg"
 width="1023.000000pt" height="1023.000000pt" viewBox="0 0 1023.000000 1023.000000"
 preserveAspectRatio="xMidYMid meet">
<metadata>
Created by potrace 1.14, written by Peter Selinger 2001-2017
</metadata>
<g transform="translate(0.000000,1023.000000) scale(0.100000,-0.100000)"
fill="#000000" stroke="none">
<path d="M4870 10064 c-501 -34 -879 -106 -1305 -249 -231 -77 -402 -149 -629
-262 -475 -238 -893 -539 -1271 -918 -308 -307 -539 -609 -789 -1027 -191
-320 -375 -762 -487 -1167 -121 -442 -173 -843 -173 -1326 0 -391 27 -662 99
-1015 261 -1263 1015 -2392 2076 -3107 511 -345 1122 -603 1719 -727 356 -74
616 -100 1000 -100 299 0 428 8 690 45 1033 145 2009 636 2755 1384 687 688
1154 1555 1350 2505 72 353 99 624 99 1015 0 389 -26 660 -99 1015 -307 1484
-1275 2750 -2621 3423 -543 272 -1085 429 -1699 493 -135 14 -602 26 -715 18z
m600 -445 c933 -70 1846 -458 2563 -1089 368 -324 685 -710 931 -1133 61 -105
72 -137 46 -137 -4 0 -75 -32 -156 -71 -82 -39 -180 -86 -219 -104 -38 -18
-126 -60 -195 -93 -176 -84 -281 -133 -385 -182 -49 -23 -139 -66 -200 -95
-459 -220 -436 -210 -448 -190 -5 9 -34 53 -65 98 -392 576 -1002 982 -1682
1120 -194 40 -318 52 -540 52 -222 0 -346 -12 -540 -52 -634 -128 -1213 -494
-1603 -1009 -28 -38 -59 -80 -67 -93 l-15 -23 -808 402 c-444 221 -807 407
-807 413 2 37 256 401 408 584 673 812 1604 1359 2632 1547 363 66 753 85
1150 55z m-60 -2273 c250 -34 465 -98 688 -206 233 -113 404 -233 591 -415
198 -193 336 -383 457 -630 157 -323 224 -615 224 -985 0 -370 -68 -665 -225
-986 -121 -248 -258 -437 -456 -629 -353 -343 -792 -557 -1272 -620 -153 -20
-441 -20 -594 0 -480 63 -919 277 -1272 620 -198 193 -336 383 -457 630 -157
323 -224 615 -224 985 0 370 67 662 224 985 121 247 259 437 457 630 352 342
782 552 1269 620 129 18 459 18 590 1z m3102 -4015 l567 -283 -31 -62 c-220
-438 -604 -925 -1015 -1286 -604 -532 -1342 -889 -2133 -1034 -498 -91 -1082
-91 -1580 0 -485 89 -976 267 -1401 510 -591 337 -1131 842 -1516 1419 -104
156 -253 417 -253 443 0 4 42 28 93 52 157 74 307 145 422 200 108 51 210 100
370 175 44 20 134 63 200 95 66 32 161 77 210 100 50 23 132 62 182 86 147 70
137 69 163 21 13 -23 55 -89 93 -147 383 -575 978 -984 1652 -1134 210 -47
333 -60 585 -60 252 0 375 13 585 60 728 162 1371 633 1741 1275 l45 78 227
-113 c125 -62 482 -240 794 -395z"/>
<path d="M4860 9363 c-80 -14 -146 -26 -147 -27 -1 -1 30 -191 68 -421 81
-483 83 -530 34 -610 -18 -29 -45 -56 -67 -67 -48 -25 -153 -43 -199 -34 -77
14 -136 75 -165 170 -11 39 -153 845 -154 877 0 6 -341 -49 -349 -56 -8 -9
130 -819 154 -908 33 -118 76 -199 143 -269 115 -121 289 -162 518 -123 304
52 461 180 505 409 19 103 9 206 -64 646 l-72 435 -30 2 c-17 1 -95 -10 -175
-24z"/>
<path d="M6045 9306 c-3 -6 -81 -299 -175 -651 -94 -352 -173 -647 -176 -656
-4 -13 26 -24 168 -62 94 -26 173 -46 174 -44 4 3 354 1314 354 1324 0 14
-341 102 -345 89z"/>
<path d="M7275 8606 c-47 -63 -85 -118 -85 -123 0 -5 95 -78 210 -163 116 -84
210 -156 210 -159 0 -3 -257 -111 -570 -240 -314 -128 -570 -236 -570 -240 1
-5 836 -623 919 -679 17 -12 26 -3 100 97 45 61 84 117 87 124 3 9 -73 70
-220 178 -124 90 -225 166 -226 169 0 3 253 110 563 239 309 128 566 236 570
240 6 6 -863 656 -894 669 -5 2 -47 -48 -94 -112z"/>
<path d="M2774 8659 c-257 -30 -520 -230 -635 -485 -43 -95 -62 -185 -62 -299
0 -328 227 -616 553 -702 86 -23 253 -23 340 0 222 58 433 232 533 439 l42 87
92 0 91 1 97 133 97 132 -69 6 c-37 4 -111 7 -164 8 -104 1 -109 4 -109 58 0
44 -31 146 -66 219 -134 273 -436 439 -740 403z m191 -386 c108 -37 213 -150
239 -255 l6 -27 -72 -3 -72 -3 -102 -130 -102 -130 138 -5 c76 -3 141 -8 145
-12 12 -11 -43 -75 -98 -112 -78 -53 -130 -69 -227 -70 -75 -1 -93 3 -150 30
-158 75 -251 248 -220 409 47 239 292 385 515 308z"/>
<path d="M4874 6575 c-280 -51 -501 -184 -645 -388 -80 -114 -139 -289 -139
-412 l0 -45 365 0 365 0 0 35 c0 54 36 137 77 177 49 48 99 68 169 68 87 0
133 -18 190 -75 65 -65 89 -130 81 -221 -21 -226 -277 -372 -574 -330 l-53 8
0 -356 0 -356 340 0 340 0 0 131 0 131 43 16 c91 35 255 123 318 170 208 158
310 375 296 632 -7 133 -25 200 -86 325 -126 256 -378 438 -680 490 -101 18
-309 18 -407 0z"/>
<path d="M4937 4511 c-169 -56 -281 -199 -294 -377 -25 -330 314 -559 616
-417 160 76 262 272 233 447 -24 146 -114 266 -244 326 -93 43 -219 51 -311
21z"/>
<path d="M7287 3174 c-70 -64 -127 -120 -127 -125 0 -4 79 -95 176 -201 l177
-192 -45 -41 c-25 -22 -112 -100 -192 -174 -144 -131 -148 -134 -165 -115 -10
10 -91 99 -180 196 l-162 178 -127 -116 c-70 -64 -128 -120 -130 -124 -2 -6
762 -853 899 -994 l28 -29 128 119 c70 65 128 122 128 125 0 4 -85 100 -189
213 -158 174 -187 210 -175 220 316 292 370 338 382 323 7 -8 93 -103 191
-211 l179 -195 66 59 c36 32 96 87 133 122 l68 63 -435 475 c-240 261 -450
490 -468 508 l-33 32 -127 -116z"/>
<path d="M2502 2693 l-484 -476 126 -125 125 -126 486 479 486 479 -123 123
c-67 68 -125 123 -128 123 -3 0 -222 -214 -488 -477z"/>
<path d="M3531 2608 c-5 -13 -120 -298 -255 -635 -135 -336 -246 -615 -246
-620 0 -5 74 -39 164 -75 l165 -66 152 382 c84 209 155 384 158 388 4 4 71
-214 150 -485 79 -271 147 -502 152 -513 5 -16 49 -38 171 -87 90 -36 164 -64
165 -64 4 5 512 1281 510 1283 -1 1 -75 31 -165 67 -160 65 -163 65 -171 44
-108 -281 -306 -757 -310 -747 -3 8 -71 240 -151 515 l-147 500 -124 51 c-230
94 -208 87 -218 62z"/>
<path d="M5765 2289 c-170 -25 -295 -88 -420 -214 -100 -99 -146 -175 -187
-305 -19 -61 -23 -97 -23 -195 1 -144 16 -212 81 -343 36 -74 61 -109 122
-171 144 -145 292 -210 495 -219 133 -5 217 10 325 59 74 33 201 116 209 135
3 8 -23 101 -57 208 l-63 194 -37 -56 c-48 -76 -119 -136 -189 -163 -190 -72
-382 4 -471 185 -98 198 -25 418 168 513 51 25 67 28 162 28 94 0 111 -3 164
-27 33 -16 56 -23 54 -15 -3 6 -31 96 -64 199 -57 179 -60 187 -88 192 -37 8
-106 6 -181 -5z"/>
</g>
</svg>
