<?xml version="1.0" standalone="no"?>
<!DOCTYPE svg PUBLIC "-//W3C//DTD SVG 20010904//EN"
 "http://www.w3.org/TR/2001/REC-SVG-20010904/DTD/svg10.dtd">
<svg version="1.0" xmlns="http://www.w3.org/2000/svg"
 width="1023.000000pt" height="1023.000000pt" viewBox="0 0 1023.000000 1023.000000"
 preserveAspectRatio="xMidYMid meet">
<metadata>
Created by potrace 1.14, written by Peter Selinger 2001-2017
</metadata>
<g transform="translate(0.000000,1023.000000) scale(0.100000,-0.100000)"
fill="#000000" stroke="none">
<path d="M4840 10064 c-998 -70 -1867 -387 -2640 -963 -530 -395 -986 -910
-1330 -1501 -39 -68 -81 -135 -91 -149 -10 -13 -19 -28 -19 -34 0 -5 -34 -83
-75 -173 -317 -688 -474 -1391 -475 -2124 -2 -1786 948 -3433 2490 -4319 492
-283 1059 -484 1620 -575 302 -49 442 -60 790 -60 348 0 488 11 790 60 1553
251 2905 1264 3605 2699 260 534 418 1090 481 1700 25 237 25 743 0 980 -152
1454 -892 2734 -2063 3566 -687 488 -1468 782 -2323 874 -138 15 -638 27 -760
19z m676 -449 c737 -70 1422 -312 2039 -720 573 -379 1068 -907 1415 -1509 56
-98 65 -126 39 -126 -5 0 -53 -21 -107 -46 -53 -26 -133 -63 -177 -84 -44 -21
-134 -63 -200 -95 -66 -32 -163 -78 -215 -102 -176 -83 -264 -126 -390 -186
-119 -56 -207 -98 -400 -189 -47 -22 -88 -42 -92 -45 -4 -2 -34 36 -67 85
-330 491 -810 863 -1358 1052 -1097 378 -2307 17 -3012 -898 -52 -67 -100
-122 -105 -122 -6 0 -337 162 -736 361 -399 198 -758 377 -798 396 -39 20 -72
40 -72 45 0 15 118 197 215 333 749 1049 1912 1722 3190 1849 195 19 633 20
831 1z m-110 -2270 c250 -33 494 -107 713 -216 619 -308 1055 -867 1205 -1544
61 -278 61 -672 0 -950 -94 -423 -288 -784 -589 -1094 -356 -368 -817 -599
-1329 -666 -232 -30 -548 -16 -780 36 -151 33 -361 108 -505 180 -619 308
-1055 867 -1205 1544 -61 278 -61 672 0 950 94 423 288 784 589 1094 353 364
814 597 1320 665 140 19 437 19 581 1z m2865 -3896 c420 -210 775 -385 787
-390 l24 -9 -58 -108 c-236 -442 -593 -890 -984 -1235 -698 -614 -1539 -984
-2475 -1089 -162 -18 -748 -18 -910 0 -715 80 -1372 314 -1965 700 -536 348
-1018 842 -1359 1392 -84 135 -181 310 -181 327 0 6 17 18 38 26 35 14 88 39
390 183 64 31 160 77 212 101 132 63 256 121 385 183 61 29 151 72 200 95 50
24 140 66 200 95 61 29 128 61 151 70 l40 18 27 -48 c99 -176 261 -386 426
-551 1052 -1051 2750 -1051 3802 0 169 170 349 405 440 575 13 25 29 46 35 46
6 0 355 -171 775 -381z"/>
<path d="M4486 9344 c-87 -24 -160 -45 -163 -47 -2 -3 44 -181 102 -396 58
-216 105 -396 105 -401 0 -5 -192 134 -426 309 l-425 318 -172 -47 c-151 -41
-172 -49 -169 -66 7 -43 346 -1300 352 -1307 7 -8 308 66 336 82 8 4 -11 88
-57 261 -38 140 -87 322 -108 403 l-40 148 32 -24 c18 -13 210 -157 427 -320
l396 -296 169 45 c94 25 172 47 174 50 8 8 -353 1334 -363 1333 -6 -1 -82 -21
-170 -45z"/>
<path d="M5985 9291 c-409 -66 -680 -439 -611 -840 48 -278 226 -487 491 -577
69 -23 101 -28 227 -32 l147 -4 10 38 c77 286 98 370 96 372 -2 2 -22 -6 -44
-18 -121 -61 -240 -63 -358 -5 -82 40 -132 91 -172 175 -23 48 -26 68 -26 155
0 91 3 106 31 165 44 92 93 143 172 182 170 84 379 26 482 -134 24 -36 42 -55
44 -47 3 8 28 100 56 204 l51 190 -30 25 c-50 42 -181 107 -261 129 -84 24
-230 34 -305 22z"/>
<path d="M7047 8212 l-487 -487 127 -128 128 -127 202 202 203 203 182 -183
183 -182 -203 -203 -202 -202 128 -128 127 -127 490 490 490 490 -128 127
-127 128 -188 -188 -187 -187 -183 182 -182 183 187 187 188 188 -125 125
c-69 69 -127 125 -130 125 -3 0 -224 -219 -493 -488z"/>
<path d="M2230 8265 l-125 -125 490 -490 490 -490 127 127 128 128 -487 487
c-269 269 -490 488 -493 488 -3 0 -61 -56 -130 -125z"/>
<path d="M4885 6579 c-430 -63 -762 -384 -792 -765 l-6 -84 367 0 366 0 0 28
c0 54 31 133 68 174 50 56 102 78 182 78 262 0 362 -315 160 -504 -108 -101
-275 -144 -462 -121 l-58 7 0 -356 0 -356 340 0 339 0 3 131 3 130 93 39 c135
57 244 125 333 208 158 148 229 315 229 540 0 413 -322 769 -766 847 -94 16
-300 18 -399 4z"/>
<path d="M4957 4519 c-252 -59 -390 -360 -275 -602 129 -270 493 -328 698
-111 178 188 150 496 -59 645 -96 69 -243 97 -364 68z"/>
<path d="M7082 2957 l-402 -402 108 -108 107 -107 190 190 c155 155 191 187
197 173 4 -10 71 -279 148 -598 78 -319 143 -587 146 -595 3 -9 149 130 424
405 l420 420 -110 110 -110 110 -204 -204 c-164 -164 -205 -200 -209 -185 -4
11 -69 276 -146 589 -78 314 -144 578 -148 588 -7 14 -85 -59 -411 -386z"/>
<path d="M2465 3289 c-285 -44 -529 -263 -600 -540 -90 -348 95 -714 452 -893
l72 -36 3 -92 3 -91 129 -94 c70 -52 130 -92 132 -90 3 2 7 77 11 165 l6 162
36 5 c136 21 217 50 316 116 150 100 268 267 311 439 22 86 22 244 0 335 -65
270 -307 520 -576 594 -86 24 -214 33 -295 20z m186 -369 c254 -48 402 -315
300 -545 -39 -88 -150 -181 -248 -210 -22 -6 -23 -4 -24 67 l0 73 -132 101
-132 102 -5 -138 c-3 -76 -9 -142 -13 -147 -16 -15 -133 121 -158 183 -31 81
-31 196 0 277 44 112 165 213 281 236 63 12 70 12 131 1z"/>
<path d="M3906 2421 c-16 -28 -228 -856 -237 -928 -38 -305 111 -502 452 -595
70 -19 109 -23 230 -23 l145 0 76 38 c116 57 194 153 254 313 26 69 248 884
242 889 -4 5 -342 95 -344 92 -1 -1 -49 -181 -108 -399 -58 -218 -115 -421
-126 -450 -27 -73 -79 -132 -135 -154 -116 -44 -300 43 -321 151 -14 75 6 178
110 565 58 217 106 399 106 406 0 6 -28 19 -62 28 -35 8 -111 29 -171 45 -59
16 -109 26 -111 22z"/>
<path d="M5860 2256 c-136 -37 -155 -45 -152 -62 8 -44 346 -1300 352 -1307 7
-8 307 66 336 82 8 4 -46 220 -166 666 -153 573 -179 660 -196 662 -10 1 -89
-17 -174 -41z"/>
</g>
</svg>
